<?xml version="1.0" encoding="UTF-8"?><svg id="Layer_2" xmlns="http://www.w3.org/2000/svg" viewBox="0 0 265.21 287.08"><g id="Layer_1-2"><path d="M29.32,286.69L65.02,13.22c11.35,33.6,29.87,82.3,59.08,138.12,35.37,67.59,64.75,104.23,54.02,116.11-6.62,7.33-20.34-3.05-110.27-35.78C30.1,217.93,3.24,209.11,3,195.49c-.08-4.63,2.97-6.65,17.1-20.9,30.25-30.51,35.08-40.24,42.24-38.41,5.58,1.43,6.5,8.33,15.71,35.56,10.12,29.91,15.27,44.87,19.96,44.96,11.47.22,19.22-66.1,26.09-65.37,6.82.73,3.82,57.29,10.23,58,3.94.43,9.85-20.5,16.24-50.13,2-1.48,4.73-3.19,8.22-4.56,5.36-2.11,10.16-2.5,13.29-2.49,30.2-48.29,60.4-96.57,90.59-144.86" fill="none" stroke="#fff" stroke-miterlimit="10" stroke-width="6"/></g></svg>